<?xml version="1.0" encoding="utf-8"?>
<!-- Generator: Adobe Illustrator 16.0.1, SVG Export Plug-In . SVG Version: 6.00 Build 0)  -->
<!DOCTYPE svg PUBLIC "-//W3C//DTD SVG 1.1//EN" "http://www.w3.org/Graphics/SVG/1.1/DTD/svg11.dtd">
<svg version="1.1" id="Слой_1" xmlns="http://www.w3.org/2000/svg" xmlns:xlink="http://www.w3.org/1999/xlink" x="0px" y="0px"
	 width="257.968px" height="257.968px" viewBox="0 0 257.968 257.968" enable-background="new 0 0 257.968 257.968"
	 xml:space="preserve">
<g>
	<g>
		<path fill-rule="evenodd" clip-rule="evenodd" fill="none" d="M1,48.994C1,32.996,1,16.998,1,1c85.656,0,171.312,0,256.968,0
			c0,85.656,0,171.312,0,256.968c-85.656,0-171.312,0-256.968,0c0-16.331,0-32.663,0-48.994c22.469-0.055,44.938-0.023,67.406-0.203
			c9.979-0.08,19.973-0.456,29.709-3.027c17.887-4.722,31.181-20.641,33.019-39.604c1.868-19.271-5.22-35.374-22.534-42.434
			c-0.187-0.076-0.225-0.515-0.406-0.967c0.476-0.351,0.942-0.818,1.504-1.087c23.255-11.17,21.387-51.334,0.153-64.107
			c-11.23-6.756-23.426-8.192-35.952-8.324C49.601,48.964,25.299,49.049,1,48.994z M256.797,155.134
			c0-5.27,0.195-9.896-0.036-14.501c-0.731-14.562-5.096-27.775-15.329-38.537c-10.804-11.362-24.715-14.783-39.797-15.556
			c-26.449-1.354-49.06,14.807-55.367,40.179c-3.093,12.438-3.192,25.059-1.022,37.653c3.283,19.055,14.451,31.707,32.246,38.666
			c14.968,5.854,30.182,5.915,45.464,1.276c11.81-3.585,20.777-10.975,27.441-21.2c2.425-3.722,4.613-7.662,4.512-12.954
			c-9.45,0-18.724,0.014-27.997-0.016c-1.313-0.004-2.195,0.504-2.847,1.606c-6.007,10.17-15.527,12.207-26.285,11.287
			c-14.394-1.229-24.457-13.104-23.414-27.904C201.608,155.134,228.877,155.134,256.797,155.134z M168.164,71.689
			c21.535,0,42.556,0,64.024,0c-0.328-5.339,0.472-10.391-0.481-15.395c-21.333,0-42.347,0-63.543,0
			C168.164,61.518,168.164,66.44,168.164,71.689z"/>
		<path fill-rule="evenodd" clip-rule="evenodd" d="M1,48.994c24.299,0.056,48.601-0.029,72.899,0.226
			c12.526,0.132,24.722,1.568,35.952,8.324c21.234,12.773,23.102,52.937-0.153,64.107c-0.562,0.27-1.028,0.737-1.504,1.087
			c0.181,0.452,0.219,0.891,0.406,0.967c17.314,7.06,24.402,23.162,22.534,42.434c-1.838,18.964-15.132,34.883-33.019,39.604
			c-9.736,2.571-19.73,2.947-29.709,3.027c-22.468,0.18-44.937,0.148-67.406,0.203C1,155.647,1,102.32,1,48.994z M38.206,138.518
			c0,14.47,0,28.316,0,42.615c14.308-0.75,28.293,1.035,42.17-1.018c12.009-1.776,18.014-9.775,17.603-22.579
			c-0.343-10.675-6.714-17.325-18.422-18.445C65.963,137.79,52.315,138.67,38.206,138.518z M38.054,112.154
			c8.376,0,16.18,0.048,23.983-0.016c6.304-0.051,12.639,0.403,18.869-1.078c9.657-2.296,14.208-7.908,13.908-17.234
			c-0.306-9.527-4.823-14.363-15.124-15.83c-13.57-1.931-27.224-0.78-40.844-0.846c-0.257-0.002-0.517,0.379-0.792,0.595
			C38.054,88.999,38.054,100.261,38.054,112.154z"/>
		<path fill-rule="evenodd" clip-rule="evenodd" d="M256.797,155.134c-27.92,0-55.188,0-82.432,0
			c-1.043,14.8,9.021,26.675,23.414,27.904c10.758,0.92,20.278-1.117,26.285-11.287c0.651-1.103,1.534-1.61,2.847-1.606
			c9.273,0.029,18.547,0.016,27.997,0.016c0.102,5.292-2.087,9.232-4.512,12.954c-6.664,10.226-15.632,17.615-27.441,21.2
			c-15.282,4.639-30.496,4.577-45.464-1.276c-17.795-6.959-28.963-19.611-32.246-38.666c-2.17-12.594-2.07-25.215,1.022-37.653
			c6.308-25.373,28.918-41.534,55.367-40.179c15.082,0.772,28.993,4.194,39.797,15.556c10.233,10.762,14.598,23.976,15.329,38.537
			C256.992,145.237,256.797,149.864,256.797,155.134z M225.539,134.918c-0.1-14.107-10.392-23.679-25.319-23.763
			c-14.149-0.08-24.672,9.851-24.938,23.763C192.037,134.918,208.787,134.918,225.539,134.918z"/>
		<path fill-rule="evenodd" clip-rule="evenodd" d="M168.164,71.689c0-5.25,0-10.172,0-15.395c21.196,0,42.21,0,63.543,0
			c0.953,5.004,0.153,10.055,0.481,15.395C210.72,71.689,189.699,71.689,168.164,71.689z"/>
		<path fill-rule="evenodd" clip-rule="evenodd" fill="none" d="M38.206,138.518c14.109,0.152,27.757-0.728,41.351,0.573
			c11.708,1.12,18.079,7.771,18.422,18.445c0.411,12.804-5.593,20.803-17.603,22.579c-13.876,2.053-27.862,0.268-42.17,1.018
			C38.206,166.834,38.206,152.987,38.206,138.518z"/>
		<path fill-rule="evenodd" clip-rule="evenodd" fill="none" d="M38.054,112.154c0-11.893,0-23.155,0-34.409
			c0.275-0.216,0.535-0.597,0.792-0.595c13.62,0.065,27.273-1.085,40.844,0.846c10.301,1.467,14.818,6.303,15.124,15.83
			c0.299,9.326-4.251,14.938-13.908,17.234c-6.23,1.481-12.565,1.027-18.869,1.078C54.234,112.202,46.431,112.154,38.054,112.154z"
			/>
		<path fill-rule="evenodd" clip-rule="evenodd" fill="none" d="M225.539,134.918c-16.752,0-33.502,0-50.257,0
			c0.266-13.913,10.788-23.843,24.938-23.763C215.147,111.239,225.439,120.811,225.539,134.918z"/>
	</g>
</g>
</svg>
