<?xml version="1.0" encoding="utf-8"?>
<!-- Generator: Adobe Illustrator 16.0.1, SVG Export Plug-In . SVG Version: 6.00 Build 0)  -->
<!DOCTYPE svg PUBLIC "-//W3C//DTD SVG 1.1//EN" "http://www.w3.org/Graphics/SVG/1.1/DTD/svg11.dtd">
<svg version="1.1" id="Слой_1" xmlns="http://www.w3.org/2000/svg" xmlns:xlink="http://www.w3.org/1999/xlink" x="0px" y="0px"
	 width="257.968px" height="257.968px" viewBox="0 0 257.968 257.968" enable-background="new 0 0 257.968 257.968"
	 xml:space="preserve">
<g>
	<g>
		<path fill-rule="evenodd" clip-rule="evenodd" fill="none" d="M194.976,1c20.997,0,41.994,0,62.992,0
			c0,85.656,0,171.312,0,256.968c-85.656,0-171.312,0-256.968,0C1,172.312,1,86.656,1,1c49.994,0,99.987,0,149.981,0
			c-0.893,0.962-2.12,0.793-3.251,0.99c-23.024,4.011-38.651,16.689-45.979,39.161c-2.883,8.841-3.383,17.932-3.288,27.125
			c0.084,8.097,0.018,16.195,0.018,24.712c-10.638,0-20.602-0.017-30.565,0.006c-6.75,0.016-8.072,1.361-8.084,8.252
			c-0.022,11.994-0.018,23.988-0.002,35.982c0.01,7.252,1.034,8.24,8.509,8.255c8.163,0.017,16.326-0.03,24.488,0.033
			c1.761,0.014,3.67-0.538,5.654,1.128c0,1.848,0,3.989,0,6.13c0,31.818-0.003,63.638,0.003,95.456
			c0.001,7.763,0.952,8.73,8.522,8.735c11.828,0.008,23.656,0.003,35.484,0.002c9.033-0.001,9.988-0.93,9.992-9.976
			c0.012-31.652-0.01-63.305,0.038-94.957c0.003-2.075-0.67-4.327,1.092-6.549c11.626,0,23.439,0.025,35.253-0.01
			c6.377-0.019,7.89-1.521,7.929-8.024c0.062-10.329,0.018-20.657,0.018-30.986c0-13.478,0-13.478-13.579-13.478
			c-10.114,0-20.229,0-30.613,0c0-10.083-0.328-19.568,0.097-29.02c0.388-8.627,4.635-12.627,13.3-13.042
			c8.309-0.397,16.641-0.29,24.963-0.436c5.723-0.1,7.118-1.434,7.146-7.124c0.056-11.661-0.083-23.323,0.083-34.983
			C198.252,5.257,197.212,2.955,194.976,1z"/>
		<path fill-rule="evenodd" clip-rule="evenodd" d="M194.976,1c2.236,1.955,3.276,4.257,3.231,7.385
			c-0.166,11.66-0.027,23.322-0.083,34.983c-0.027,5.69-1.423,7.024-7.146,7.124c-8.322,0.146-16.654,0.038-24.963,0.436
			c-8.665,0.414-12.912,4.415-13.3,13.042c-0.425,9.452-0.097,18.937-0.097,29.02c10.385,0,20.499,0,30.613,0
			c13.579,0,13.579,0,13.579,13.478c0,10.329,0.044,20.657-0.018,30.986c-0.039,6.504-1.552,8.006-7.929,8.024
			c-11.813,0.035-23.627,0.01-35.253,0.01c-1.762,2.222-1.089,4.474-1.092,6.549c-0.048,31.652-0.026,63.305-0.038,94.957
			c-0.004,9.046-0.959,9.975-9.992,9.976c-11.828,0.001-23.656,0.006-35.484-0.002c-7.57-0.005-8.521-0.973-8.522-8.735
			c-0.006-31.818-0.003-63.638-0.003-95.456c0-2.141,0-4.282,0-6.13c-1.984-1.666-3.894-1.114-5.654-1.128
			c-8.162-0.063-16.326-0.017-24.488-0.033c-7.475-0.015-8.499-1.003-8.509-8.255c-0.016-11.994-0.02-23.989,0.002-35.982
			c0.013-6.891,1.334-8.236,8.084-8.252c9.964-0.022,19.927-0.006,30.565-0.006c0-8.517,0.066-16.615-0.018-24.712
			c-0.095-9.194,0.404-18.285,3.288-27.125c7.328-22.472,22.955-35.15,45.979-39.161c1.131-0.197,2.358-0.028,3.251-0.99
			C165.646,1,180.311,1,194.976,1z"/>
	</g>
</g>
</svg>
