<?xml version="1.0" encoding="utf-8"?>
<!-- Generator: Adobe Illustrator 16.0.1, SVG Export Plug-In . SVG Version: 6.00 Build 0)  -->
<!DOCTYPE svg PUBLIC "-//W3C//DTD SVG 1.1//EN" "http://www.w3.org/Graphics/SVG/1.1/DTD/svg11.dtd">
<svg version="1.1" id="Слой_1" xmlns="http://www.w3.org/2000/svg" xmlns:xlink="http://www.w3.org/1999/xlink" x="0px" y="0px"
	 width="37.995px" height="35.997px" viewBox="0 0 37.995 35.997" enable-background="new 0 0 37.995 35.997" xml:space="preserve">
<g>
	<g>
		<path fill-rule="evenodd" clip-rule="evenodd" fill="none" d="M1,35.997C1,23.999,1,12,1,0.002c12.332,0,24.663,0,36.995,0
			c0,11.998,0,23.997,0,35.995C25.663,35.997,13.332,35.997,1,35.997z M13.998,21.499c1.634,1.635,3.019,3.019,4.403,4.403
			c2.591,2.59,5.154,5.208,7.808,7.73c0.29,0.275,1.1,0.002,1.669-0.017c-0.039-0.451,0.101-1.074-0.143-1.326
			c-2.547-2.629-5.154-5.198-7.799-7.838c2.169-1.754,3.782-4.104,6.485-5.96c1.349,1.503,2.527,2.876,3.771,4.188
			c1.26,1.328,2.534,2.65,3.91,3.854c0.347,0.303,1.104,0.135,1.673,0.184c-0.089-0.568,0.022-1.318-0.301-1.675
			c-1.451-1.601-2.994-3.126-4.565-4.612c-1.646-1.557-3.036-3.421-5.112-4.731c-2.546,2.545-4.929,4.928-7.266,7.266
			c-1.648-1.569-3.053-2.908-4.609-4.391c-3.884,3.884-7.516,7.506-11.13,11.147c-0.325,0.328-0.608,0.747-0.761,1.177
			c-0.083,0.233,0.071,0.666,0.267,0.849c0.199,0.186,0.689,0.337,0.864,0.22c0.667-0.441,1.301-0.954,1.872-1.519
			C7.958,27.556,10.86,24.637,13.998,21.499z M30.996,6.145c0.078-2.595-2.141-5.051-4.733-5.131
			c-2.849-0.088-4.854,1.486-5.233,4.601c-0.357,2.935,2.004,5.38,4.947,5.386C28.721,11.006,30.913,8.884,30.996,6.145z"/>
		<path fill-rule="evenodd" clip-rule="evenodd" d="M13.998,21.499c-3.138,3.138-6.04,6.057-8.964,8.95
			c-0.57,0.564-1.204,1.077-1.872,1.519c-0.175,0.117-0.666-0.034-0.864-0.22c-0.196-0.183-0.35-0.615-0.267-0.849
			c0.152-0.43,0.436-0.849,0.761-1.177c3.614-3.642,7.247-7.264,11.13-11.147c1.556,1.482,2.961,2.821,4.609,4.391
			c2.337-2.338,4.72-4.721,7.266-7.266c2.076,1.31,3.466,3.174,5.112,4.731c1.571,1.486,3.114,3.012,4.565,4.612
			c0.323,0.356,0.212,1.106,0.301,1.675c-0.568-0.049-1.326,0.119-1.673-0.184c-1.376-1.203-2.65-2.525-3.91-3.854
			c-1.243-1.313-2.422-2.686-3.771-4.188c-2.703,1.855-4.316,4.206-6.485,5.96c2.645,2.64,5.252,5.209,7.799,7.838
			c0.243,0.252,0.104,0.875,0.143,1.326c-0.569,0.019-1.379,0.292-1.669,0.017c-2.653-2.522-5.217-5.141-7.808-7.73
			C17.017,24.518,15.632,23.134,13.998,21.499z"/>
		<path fill-rule="evenodd" clip-rule="evenodd" d="M30.996,6.145c-0.083,2.74-2.275,4.862-5.02,4.856
			c-2.943-0.006-5.305-2.451-4.947-5.386c0.379-3.115,2.385-4.689,5.233-4.601C28.855,1.093,31.074,3.549,30.996,6.145z
			 M28.996,6.751c0.102-1.832-1.218-3.717-2.625-3.75c-2.261-0.052-3.212,0.653-3.374,2.5C22.79,7.857,23.688,8.95,25.871,9
			C27.77,9.045,28.914,8.221,28.996,6.751z"/>
		<path fill-rule="evenodd" clip-rule="evenodd" fill="none" d="M28.996,6.751C28.914,8.221,27.77,9.045,25.871,9
			c-2.184-0.051-3.081-1.143-2.874-3.5c0.162-1.846,1.113-2.551,3.374-2.5C27.778,3.034,29.098,4.919,28.996,6.751z"/>
	</g>
</g>
</svg>
