<?xml version="1.0" encoding="utf-8"?>
<!-- Generator: Adobe Illustrator 16.0.1, SVG Export Plug-In . SVG Version: 6.00 Build 0)  -->
<!DOCTYPE svg PUBLIC "-//W3C//DTD SVG 1.1//EN" "http://www.w3.org/Graphics/SVG/1.1/DTD/svg11.dtd">
<svg version="1.1" id="Слой_1" xmlns="http://www.w3.org/2000/svg" xmlns:xlink="http://www.w3.org/1999/xlink" x="0px" y="0px"
	 width="80.99px" height="80.99px" viewBox="0 0 80.99 80.99" enable-background="new 0 0 80.99 80.99" xml:space="preserve">
<g>
	<g>
		<path fill-rule="evenodd" clip-rule="evenodd" fill="none" d="M45.994,1C58.326,1,70.658,1,82.99,1c0,27.33,0,54.66,0,81.99
			c-27.33,0-54.66,0-81.99,0c0-11.999,0-23.997,0-35.996c0.631-0.113,0.987,0.277,0.979,0.789c-0.05,3.401,1.539,6.329,2.703,9.362
			c2.091,5.449,5.598,9.892,9.817,13.905c7.155,6.806,15.953,9.647,25.416,10.879c2.503,0.325,5.049-0.36,7.586-0.753
			c3.935-0.609,7.564-1.911,11.104-3.408c4.902-2.073,8.863-5.572,12.584-9.404c6.266-6.457,9.102-14.561,10.653-23.002
			c1.257-6.835-1.067-13.411-3.702-19.821c-2.182-5.309-5.665-9.457-9.531-13.539c-4.13-4.36-15.155-9.868-21.824-10.019
			C46.268,1.972,45.881,1.631,45.994,1z"/>
		<path fill-rule="evenodd" clip-rule="evenodd" d="M45.994,1c-0.113,0.631,0.273,0.972,0.79,0.983
			c6.669,0.151,17.694,5.659,21.824,10.019c3.866,4.082,7.35,8.229,9.531,13.539c2.635,6.41,4.959,12.986,3.702,19.821
			c-1.552,8.441-4.388,16.545-10.653,23.002c-3.721,3.832-7.682,7.331-12.584,9.404c-3.539,1.497-7.169,2.799-11.104,3.408
			c-2.537,0.393-5.083,1.078-7.586,0.753c-9.462-1.231-18.261-4.073-25.416-10.879c-4.219-4.014-7.726-8.456-9.817-13.905
			c-1.164-3.033-2.752-5.961-2.703-9.362C1.987,47.271,1.631,46.881,1,46.994c0-3.666,0-7.332,0-10.999
			c0.628,0.113,0.987-0.276,0.979-0.785c-0.05-3.393,1.525-6.322,2.69-9.345c2.026-5.264,5.501-9.491,9.384-13.57
			C18.467,7.66,29.573,2.136,36.209,1.983c0.514-0.012,0.9-0.354,0.786-0.983C39.995,1,42.995,1,45.994,1z M40.018,3.944
			C29.043,4.785,20.342,9.239,13.27,17.186c-5.75,6.459-8.526,14.021-9.287,22.299c1.001,1.013,2.241-0.057,2.946,0.934
			c-0.002,0.795,0.314,1.612-0.206,2.359c-0.797,0.644-2.01-0.32-2.707,0.7c0.175,5.807,3.099,15.079,7.076,19.991
			c4.685,5.786,10.42,10.565,17.387,13.354c3.29,1.316,7.04,1.492,10.588,2.145c0.245,0.045,0.551-0.243,0.828-0.378
			c0.082-0.787,0.164-1.573,0.24-2.315c1.04-0.332,1.969-0.612,2.859,0.213c0,0.619-0.017,1.279,0.014,1.938
			c0.006,0.128,0.19,0.249,0.466,0.583c10.472-0.802,19.174-5.256,26.246-13.202c5.75-6.459,8.525-14.021,9.286-22.299
			c-1.001-1.013-2.241,0.057-2.946-0.934c0.002-0.795-0.314-1.612,0.206-2.359c0.797-0.644,2.01,0.32,2.707-0.7
			c-0.176-5.807-3.099-15.079-7.076-19.992c-4.685-5.786-10.42-10.565-17.387-13.353c-3.29-1.317-7.04-1.493-10.589-2.145
			c-0.244-0.045-0.551,0.243-0.828,0.378c-0.081,0.787-0.163,1.574-0.239,2.316c-1.041,0.332-1.969,0.612-2.837-0.192
			C40.018,5.884,40.018,5.225,40.018,3.944z"/>
		<path fill-rule="evenodd" clip-rule="evenodd" fill="none" d="M36.996,1c0.114,0.629-0.272,0.972-0.786,0.983
			C29.573,2.136,18.467,7.66,14.054,12.295c-3.883,4.079-7.358,8.306-9.384,13.57c-1.165,3.023-2.74,5.952-2.69,9.345
			C1.987,35.719,1.628,36.109,1,35.996C1,24.33,1,12.666,1,1C12.999,1,24.997,1,36.996,1z"/>
		<path fill-rule="evenodd" clip-rule="evenodd" fill="none" d="M40.018,3.944c0,1.281,0,1.94,0,2.581
			c0.868,0.805,1.796,0.524,2.837,0.192c0.076-0.742,0.158-1.529,0.239-2.317c0.277-0.134,0.584-0.422,0.828-0.377
			c3.549,0.652,7.299,0.828,10.589,2.145c6.967,2.788,12.702,7.567,17.387,13.353c3.978,4.913,6.9,14.185,7.076,19.993
			c-0.697,1.02-1.91,0.056-2.707,0.699c-0.521,0.747-0.204,1.564-0.206,2.359c0.705,0.99,1.945-0.079,2.946,0.934
			c-0.761,8.277-3.536,15.84-9.286,22.299c-7.072,7.946-15.774,12.4-26.246,13.202c-0.275-0.334-0.46-0.455-0.466-0.583
			c-0.03-0.658-0.014-1.318-0.014-1.938c-0.891-0.825-1.819-0.545-2.859-0.213c-0.076,0.742-0.158,1.528-0.239,2.316
			c-0.278,0.134-0.584,0.422-0.829,0.377c-3.549-0.652-7.298-0.828-10.588-2.145c-6.967-2.788-12.702-7.567-17.387-13.354
			c-3.977-4.912-6.9-14.185-7.076-19.992c0.697-1.02,1.91-0.056,2.707-0.699c0.521-0.747,0.204-1.564,0.206-2.359
			c-0.706-0.99-1.945,0.079-2.946-0.934c0.761-8.277,3.537-15.84,9.287-22.299C20.342,9.239,29.043,4.785,40.018,3.944z
			 M62.769,20.25c-0.937-0.313-1.794-0.475-2.725,0.171c-7.491,5.203-14.951,10.457-22.597,15.424
			c-0.878,0.57-1.168,1.067-1.664,1.8c-5.115,7.55-10.329,15.035-15.472,22.568c-0.559,0.818-0.57,1.815,0.091,2.706
			c0.947,0.014,1.777,0.2,2.741-0.498c5.585-4.039,11.258-7.956,17.219-11.436c1.218-0.712,2.373-1.685,3.375-2.535
			c1.064-0.904,3.357-0.773,3.256-2.953c5.177-7.509,10.334-15.032,15.55-22.514C63.206,22.034,63.013,21.194,62.769,20.25z"/>
		<path fill-rule="evenodd" clip-rule="evenodd" d="M62.769,20.25c0.244,0.943,0.438,1.783-0.225,2.733
			c-5.216,7.481-10.373,15.004-15.55,22.514c0.102,2.18-2.191,2.049-3.256,2.953c-1.002,0.851-2.157,1.823-3.375,2.535
			c-5.961,3.479-11.634,7.396-17.219,11.436c-0.964,0.698-1.794,0.512-2.741,0.498c-0.662-0.891-0.65-1.888-0.091-2.706
			c5.143-7.533,10.356-15.018,15.472-22.568c0.496-0.732,0.785-1.229,1.664-1.8c7.646-4.967,15.106-10.221,22.597-15.424
			C60.975,19.776,61.832,19.937,62.769,20.25z M27.997,55.134c3.335-0.84,5.68-3.299,8.32-5.115
			c2.735-1.881,6.365-2.874,7.373-5.244c-1.816-2.32-3.219-4.111-4.821-6.161c-4.524,4.493-6.799,10.37-10.84,14.922
			c-0.246,0.276-0.032,0.963-0.036,1.463c-0.48-0.086-0.783,0.135-0.886,0.592c-0.018,0.077,0.216,0.312,0.294,0.294
			C27.857,55.78,28.078,55.478,27.997,55.134z"/>
		<path fill-rule="evenodd" clip-rule="evenodd" fill="none" d="M27.997,55.134c0-0.636-0.214-1.322,0.032-1.599
			c4.041-4.552,6.315-10.429,10.84-14.922c1.603,2.05,3.005,3.841,4.821,6.161c-1.008,2.37-4.638,3.363-7.373,5.244
			C33.677,51.835,31.332,54.294,27.997,55.134z"/>
		<path fill-rule="evenodd" clip-rule="evenodd" fill="none" d="M27.992,54.998c0.085,0.479-0.135,0.782-0.592,0.886
			c-0.078,0.018-0.312-0.217-0.294-0.294C27.209,55.133,27.512,54.912,27.992,54.998z"/>
	</g>
</g>
</svg>
