<?xml version="1.0" encoding="utf-8"?>
<!-- Generator: Adobe Illustrator 16.0.1, SVG Export Plug-In . SVG Version: 6.00 Build 0)  -->
<!DOCTYPE svg PUBLIC "-//W3C//DTD SVG 1.1//EN" "http://www.w3.org/Graphics/SVG/1.1/DTD/svg11.dtd">
<svg version="1.1" id="Слой_1" xmlns="http://www.w3.org/2000/svg" xmlns:xlink="http://www.w3.org/1999/xlink" x="0px" y="0px"
	 width="41.994px" height="47.02px" viewBox="0 0 41.994 47.02" enable-background="new 0 0 41.994 47.02" xml:space="preserve">
<g>
	<g>
		<path fill-rule="evenodd" clip-rule="evenodd" fill="#FFFFFF" d="M1,10.999C1,7.666,1,4.333,1,1c4.999,0,9.999,0,14.998,0
			c0,2.154-0.018,4.309,0.033,6.462c0.004,0.185,0.489,0.528,0.714,0.501c0.431-0.054,1.19-0.307,1.198-0.502
			C18.03,5.31,17.998,3.154,17.998,1c8,0,15.998,0,23.997,0c0,15.331,0,30.663,0,45.994c-13.331,0-26.663-0.011-39.995,0.025
			c-0.861,0.002-1.194-0.165-1-1.025c10.586,0,21.173,0,32.094,0c0-4.151,0-8.055,0-11.875c5.259-0.912,7.687-3.465,7.952-7.611
			c0.132-2.048-0.42-3.832-1.489-5.369c-1.514-2.174-3.842-3.212-6.632-3.292c0-2.365,0-4.478,0-6.848
			C22.173,10.999,11.586,10.999,1,10.999z M9.999,6.022c-0.105-0.857,0.481-2.208-1.22-2C7.525,4.177,8.106,5.267,8.011,5.978
			C7.947,6.461,7.843,7.044,8.048,7.426c0.167,0.312,0.754,0.48,1.179,0.538C9.458,7.995,9.91,7.708,9.963,7.49
			C10.078,7.026,9.999,6.515,9.999,6.022z M26.051,6.215c-0.07-0.615-0.016-1.307-0.272-1.852c-0.124-0.264-1.03-0.493-1.247-0.32
			c-0.813,0.65-0.803,3.283,0.015,3.913c0.223,0.172,1.014-0.054,1.256-0.341C26.061,7.308,25.979,6.713,26.051,6.215z"/>
		<path fill-rule="evenodd" clip-rule="evenodd" d="M1,10.999c10.586,0,21.173,0,31.925,0c0,2.37,0,4.483,0,6.848
			c2.79,0.08,5.118,1.118,6.632,3.292c1.069,1.537,1.621,3.321,1.489,5.369c-0.266,4.146-2.693,6.699-7.952,7.611
			c0,3.82,0,7.724,0,11.875c-10.921,0-21.507,0-32.094,0C1,34.328,1,22.664,1,10.999z M30.833,43.906c0-10.522,0-20.63,0-30.908
			c-9.123,0-18.084-0.001-27.046,0.006c-0.146,0.001-0.307,0.07-0.433,0.15c-0.138,0.087-0.243,0.225-0.191,0.175
			c0,10.28,0,20.388,0,30.577C12.432,43.906,21.539,43.906,30.833,43.906z M32.916,20.012c0.291,4.092-0.317,8.065,0.441,12.097
			c3.525-0.991,5.694-2.759,5.622-6.328C38.919,22.772,37.523,21.44,32.916,20.012z"/>
		<path fill-rule="evenodd" clip-rule="evenodd" d="M17.998,1c0,2.154,0.032,4.31-0.054,6.461c-0.008,0.195-0.767,0.448-1.198,0.502
			c-0.225,0.027-0.71-0.316-0.714-0.501C15.98,5.309,15.998,3.154,15.998,1C16.665,1,17.331,1,17.998,1z"/>
		<path fill-rule="evenodd" clip-rule="evenodd" d="M9.999,6.022c0,0.492,0.079,1.004-0.036,1.468
			C9.91,7.708,9.458,7.995,9.227,7.964C8.802,7.906,8.215,7.737,8.048,7.426C7.843,7.044,7.947,6.461,8.011,5.978
			c0.095-0.71-0.486-1.8,0.768-1.955C10.48,3.814,9.894,5.166,9.999,6.022z"/>
		<path fill-rule="evenodd" clip-rule="evenodd" d="M26.051,6.215c-0.071,0.498,0.01,1.093-0.249,1.399
			c-0.242,0.287-1.033,0.513-1.256,0.341c-0.817-0.63-0.828-3.262-0.015-3.913c0.217-0.173,1.123,0.057,1.247,0.32
			C26.035,4.908,25.98,5.6,26.051,6.215z"/>
		<path fill-rule="evenodd" clip-rule="evenodd" fill="#FFFFFF" d="M30.833,43.906c-9.294,0-18.401,0-27.671,0
			c0-10.189,0-20.297,0-30.577c-0.052,0.05,0.054-0.088,0.191-0.175c0.126-0.08,0.287-0.149,0.433-0.15
			c8.962-0.007,17.923-0.006,27.046-0.006C30.833,23.276,30.833,33.384,30.833,43.906z"/>
		<path fill-rule="evenodd" clip-rule="evenodd" fill="#FFFFFF" d="M32.916,20.012c4.607,1.428,6.003,2.76,6.063,5.769
			c0.072,3.569-2.097,5.337-5.622,6.328C32.599,28.077,33.207,24.104,32.916,20.012z"/>
	</g>
</g>
</svg>
