<?xml version="1.0" encoding="utf-8"?>
<!-- Generator: Adobe Illustrator 16.0.1, SVG Export Plug-In . SVG Version: 6.00 Build 0)  -->
<!DOCTYPE svg PUBLIC "-//W3C//DTD SVG 1.1//EN" "http://www.w3.org/Graphics/SVG/1.1/DTD/svg11.dtd">
<svg version="1.1" id="Слой_1" xmlns="http://www.w3.org/2000/svg" xmlns:xlink="http://www.w3.org/1999/xlink" x="0px" y="0px"
	 width="75.016px" height="75.046px" viewBox="0 0 75.016 75.046" enable-background="new 0 0 75.016 75.046" xml:space="preserve">
<g>
	<g>
		<path fill-rule="evenodd" clip-rule="evenodd" fill="none" d="M72.991,1c0.627,0.412,2.022-0.972,2.02,1
			c-0.03,23.997-0.025,47.994,0.005,71.991c0.001,0.861-0.163,1.188-1.025,1.005c-0.16-0.034-0.333-0.005-0.499-0.005
			c-23.664,0-47.328-0.015-70.992,0.038c-1.299,0.003-1.545-0.237-1.539-1.538C1.024,59.993,1,46.494,1,32.996
			c1.442,0.942,2.809,2.039,4.341,2.799c4.97,2.465,10.023,4.765,15.005,7.209c7.705,3.78,7.703,3.803,11.646,11.82
			c2.59,5.267,5.167,10.537,7.875,15.746c0.726,1.396,1.79,3.148,2.623,3.193c1.432,0.077,1.529-2.159,2.368-3.301
			c0.396-0.537,1.067-1.454,1.05-1.994c-0.104-3.224,2.696-5.242,3.146-8.249c0.411-2.747,3.175-4.696,2.967-7.753
			c2.277-2.146,2.542-5.286,3.814-7.923c2.809-5.819,5.189-11.845,7.748-17.782c3.29-7.635,6.131-15.478,10.093-22.797
			C74.592,2.275,72.799,2.05,72.991,1z"/>
		<path fill-rule="evenodd" clip-rule="evenodd" fill="none" d="M1,31.996C1,22.165,1.033,12.332,0.96,2.5
			C0.951,1.199,1.2,0.959,2.5,0.962C25.331,1.015,48.161,1,70.991,1c-2.53,2.307-5.821,3.045-8.823,4.42
			c-6.975,3.195-14.07,6.089-21.132,9.073c-6.073,2.566-12.012,5.449-18.093,7.992c-2.559,1.07-5.016,2.583-7.562,3.314
			c-2.623,0.752-4.668,2.633-7.182,3.089C5.472,29.383,3.464,31.137,1,31.996z"/>
		<path fill-rule="evenodd" clip-rule="evenodd" d="M1,31.996c2.464-0.859,4.472-2.613,7.2-3.107
			c2.514-0.456,4.559-2.337,7.182-3.089c2.546-0.731,5.003-2.244,7.562-3.314c6.082-2.543,12.021-5.426,18.093-7.992
			c7.062-2.984,14.157-5.878,21.132-9.073C65.17,4.045,68.461,3.307,70.991,1c0.667,0,1.334,0,2,0
			c-0.192,1.05,1.601,1.275,0.685,2.966c-3.962,7.319-6.803,15.162-10.093,22.797c-2.559,5.937-4.939,11.962-7.748,17.782
			c-1.272,2.637-1.537,5.777-3.814,7.923c0.208,3.057-2.556,5.006-2.967,7.753c-0.45,3.007-3.25,5.025-3.146,8.249
			c0.018,0.54-0.654,1.457-1.05,1.994c-0.839,1.142-0.937,3.378-2.368,3.301c-0.833-0.045-1.897-1.797-2.623-3.193
			c-2.708-5.209-5.284-10.479-7.875-15.746c-3.943-8.018-3.941-8.04-11.646-11.82c-4.981-2.444-10.035-4.744-15.005-7.209
			C3.809,35.035,2.442,33.938,1,32.996C1,32.663,1,32.329,1,31.996z M63.001,9.492c0.063-0.97-0.74-0.514-1-0.459
			c-3.032,0.645-5.918,1.875-8.625,3.24c-3.309,1.667-6.747,3.268-10.122,4.475c-3.506,1.254-6.563,3.385-10.201,4.373
			c-3.517,0.954-6.717,3.027-10.134,4.416c-3.703,1.503-7.22,3.46-11.122,4.499c-1.016,0.269-2.059,0.846-2.81,1.572
			c-0.582,0.563-1.857-0.069-1.794,1.003c0.029,0.487,0.796,1.087,1.361,1.362c6.365,3.104,12.798,6.075,19.099,9.305
			c0.997,0.511,1.228,0.349,1.814-0.238C40.4,32.087,51.345,21.147,62.287,10.204c0.235-0.234,0.471-0.47,1.287-2.123
			c-0.193,0.156-0.467,0.276-0.565,0.48c-0.203,0.419,0.003,0.625,0.421,0.421c0.202-0.1,0.335-0.368,0.453-0.585
			C63.902,8.36,63.689,8.196,63.001,9.492z M66.142,13.114c-0.396-0.409,0.368-1.2-0.649-1.119
			c-0.331,0.026-0.784-0.136-0.978,0.028c-0.758,0.646-1.435,1.388-2.141,2.093c-8.241,8.241-16.518,16.448-24.701,24.746
			c-2.296,2.33-5.026,4.279-6.677,7.212c1.333,2.777,2.632,5.573,4.007,8.329c2.067,4.142,4.175,8.262,6.303,12.373
			c0.219,0.423,0.671,0.992,1.045,1.016c0.968,0.061,0.447-0.904,0.713-1.354c3.229-5.464,4.954-11.607,7.757-17.281
			c1.07-2.166,2.647-4.412,3.009-6.69c0.613-3.858,3.253-6.653,4.287-10.27c1.045-3.658,3.157-7,4.68-10.534
			c1.218-2.827,2.25-5.733,3.776-10.583c-0.192,0.156-0.466,0.276-0.564,0.48c-0.204,0.419,0.002,0.625,0.421,0.421
			c0.202-0.1,0.334-0.368,0.452-0.585C66.902,11.36,66.689,11.196,66.142,13.114z"/>
		<path fill-rule="evenodd" clip-rule="evenodd" fill="none" d="M66.142,13.114c-1.095,2.817-2.127,5.723-3.345,8.55
			c-1.522,3.534-3.635,6.876-4.68,10.534c-1.034,3.617-3.674,6.411-4.287,10.27c-0.361,2.278-1.938,4.524-3.009,6.69
			c-2.803,5.674-4.528,11.817-7.757,17.281c-0.266,0.449,0.255,1.414-0.713,1.354c-0.374-0.023-0.826-0.593-1.045-1.016
			c-2.128-4.111-4.236-8.231-6.303-12.373c-1.375-2.756-2.674-5.552-4.007-8.329c1.651-2.933,4.38-4.882,6.677-7.212
			c8.184-8.298,16.46-16.505,24.701-24.746c0.706-0.706,1.383-1.447,2.141-2.093c0.193-0.164,0.646-0.002,0.978-0.028
			C66.51,11.914,65.745,12.705,66.142,13.114z"/>
		<path fill-rule="evenodd" clip-rule="evenodd" fill="none" d="M63.001,9.492c-0.243,0.242-0.479,0.478-0.714,0.712
			C51.345,21.147,40.4,32.087,29.466,43.038c-0.586,0.587-0.817,0.749-1.814,0.238c-6.3-3.229-12.733-6.201-19.099-9.305
			c-0.565-0.275-1.332-0.875-1.361-1.362c-0.063-1.072,1.212-0.44,1.794-1.003c0.751-0.726,1.794-1.303,2.81-1.572
			c3.901-1.038,7.419-2.995,11.122-4.499c3.417-1.389,6.617-3.461,10.134-4.416c3.639-0.987,6.695-3.119,10.201-4.373
			c3.375-1.207,6.813-2.808,10.122-4.475c2.707-1.364,5.593-2.595,8.625-3.24C62.261,8.979,63.064,8.522,63.001,9.492z"/>
		<path fill-rule="evenodd" clip-rule="evenodd" fill="none" d="M63.574,8.081c0.115,0.115,0.328,0.279,0.309,0.316
			c-0.118,0.217-0.251,0.485-0.453,0.585c-0.418,0.204-0.624-0.002-0.421-0.421C63.107,8.357,63.381,8.237,63.574,8.081z"/>
		<path fill-rule="evenodd" clip-rule="evenodd" fill="none" d="M66.573,11.081c0.116,0.115,0.329,0.279,0.309,0.316
			c-0.118,0.217-0.25,0.485-0.452,0.585c-0.419,0.204-0.625-0.002-0.421-0.421C66.107,11.357,66.381,11.237,66.573,11.081z"/>
		
			<path fill-rule="evenodd" clip-rule="evenodd" fill="none" stroke="#000000" stroke-width="2" stroke-linecap="round" stroke-linejoin="round" stroke-miterlimit="10" d="
			M41.995,69.991c1.54,0.217,1.565-1.456,2.489-2.015c0.074-0.045-0.042-0.34,0.018-0.481c3.991-9.336,7.93-18.694,12.014-27.99
			c2.64-6.01,5.026-12.126,7.891-18.049c1.387-2.867,2.353-5.983,3.573-8.962c0.683-1.664,0.26-4.288-1.018-4.936
			c-1.339-0.679-2.665-1.399-4.498-0.627c-5.303,2.234-10.692,4.324-15.916,6.686c-8.977,4.058-18.057,7.869-27.075,11.824
			c-4.101,1.798-8.147,3.77-12.442,5.154C6.272,30.839,4.783,31.456,5,32.996"/>
		
			<path fill-rule="evenodd" clip-rule="evenodd" fill="none" stroke="#000000" stroke-width="2" stroke-linecap="round" stroke-linejoin="round" stroke-miterlimit="10" d="
			M65.992,8.999c-2,1.833-4.067,3.598-5.988,5.511C49.648,24.817,39.329,35.163,28.997,45.494"/>
		
			<path fill-rule="evenodd" clip-rule="evenodd" fill="none" stroke="#000000" stroke-width="2" stroke-linecap="round" stroke-linejoin="round" stroke-miterlimit="10" d="
			M1.5,32.496c1.058-0.185,2.142-0.034,2.982,0.525c6.798,4.532,14.46,7.426,21.592,11.333c2.016,1.104,3.443,2.192,4.43,4.136
			c3.814,7.509,7.611,15.027,11.552,22.469c0.484,0.916,0.271,1.699,0.439,2.532"/>
	</g>
</g>
</svg>
