<?xml version="1.0" encoding="utf-8"?>
<!-- Generator: Adobe Illustrator 16.0.1, SVG Export Plug-In . SVG Version: 6.00 Build 0)  -->
<!DOCTYPE svg PUBLIC "-//W3C//DTD SVG 1.1//EN" "http://www.w3.org/Graphics/SVG/1.1/DTD/svg11.dtd">
<svg version="1.1" id="Слой_1" xmlns="http://www.w3.org/2000/svg" xmlns:xlink="http://www.w3.org/1999/xlink" x="0px" y="0px"
	 width="65.992px" height="65.992px" viewBox="0 0 65.992 65.992" enable-background="new 0 0 65.992 65.992" xml:space="preserve">
<g>
	<g>
		<path fill-rule="evenodd" clip-rule="evenodd" fill="none" d="M1,67.992C1,45.661,1,23.33,1,1c22.331,0,44.661,0,66.992,0
			c0,22.33,0,44.661,0,66.992C45.661,67.992,23.331,67.992,1,67.992z M60.052,47.886c-0.438-0.859-1.086-1.51-1.947-1.946
			c-1.711-2.322-3.729-4.34-6.054-6.05c-0.44-0.863-1.093-1.514-1.956-1.954c-1.077-2.419-3.658-3.319-5.888-5.268
			c3.036-2.884,5.875-5.407,8.507-8.129c3.064-3.171,6.596-5.905,9.104-9.604c1.046-0.286,1.587-1.099,2.063-1.979
			c1.891-3.494,1.223-6.452-1.946-8.621c-2.94-2.013-5.432-1.663-8.031,1.577c-0.646,0.804-1.858,0.687-2.102,1.773
			c-5.971,4.473-10.589,10.419-16.331,15.326c-6.499-6.515-12.827-12.889-19.193-19.226c-2.601-2.589-2.667-2.582-5.105-0.21
			c-2.624,2.551-5.217,5.136-7.765,7.764c-2.136,2.202-2.113,2.301-0.153,4.398c0.908,0.973,1.875,1.891,2.818,2.829
			c5.647,5.61,11.295,11.221,17.521,17.407c-1.768,1.464-3.421,2.618-4.815,4.03c-3.903,3.956-7.698,8.019-11.537,12.039
			c-2.257,3.139-2.781,6.929-3.88,10.493C2.879,64.1,3.914,65.087,5.52,64.588c3.237-1.007,6.69-1.409,9.621-3.309
			c1.619-0.255,2.418-1.613,3.445-2.626c4.087-4.026,8.12-8.106,12.193-12.147c0.893-0.886,1.63-2.187,3.265-1.566
			c0.017,0.49-0.174,1.185,0.08,1.443c5.671,5.789,11.253,11.677,17.165,17.21c2.639,2.469,4.353,1.998,7.068-0.653
			c0.828-0.809,1.709-1.577,2.444-2.465c1.755-2.119,5.407-3.554,5.085-6.248C65.562,51.5,62.381,49.704,60.052,47.886z"/>
		<path fill-rule="evenodd" clip-rule="evenodd" fill="#323232" d="M7.242,52.042c3.838-4.021,7.634-8.083,11.537-12.039
			c1.394-1.412,3.047-2.566,4.815-4.03c-6.227-6.186-11.875-11.797-17.521-17.407c-0.944-0.938-1.91-1.856-2.818-2.829
			c-1.959-2.097-1.982-2.196,0.153-4.398c2.548-2.627,5.142-5.212,7.765-7.764c2.438-2.372,2.504-2.379,5.105,0.21
			c6.366,6.337,12.695,12.711,19.193,19.226c5.742-4.907,10.36-10.853,16.331-15.326c0.166,0.759,0.331,1.518,0.496,2.276
			c-1.852,1.985-3.648,4.024-5.563,5.946c-8.648,8.683-17.314,17.349-26.007,25.986c-3.453,3.431-6.993,6.774-10.494,10.158
			C9.237,52.049,8.24,52.046,7.242,52.042z M25.508,33.317c1.192-1.3,2.115-2.846,3.475-3.674c2.729-1.66,1.843-4.278,2.127-6.558
			c0.105-0.845-0.703-1.497-1.686-0.959c-0.566,0.31-0.983,0.879-1.511,1.273c-0.51,0.38-1.051,0.855-1.696,0.164
			c-0.509-0.546-0.588-1.247-0.378-1.847c0.209-0.596,0.818-1.042,1.08-1.63c0.646-1.457-0.008-2.481-1.477-2.136
			c-2.686,0.631-2.701-0.429-2.359-2.585c0.226-1.428-0.914-1.833-2.25-0.933c-0.988,0.666-1.658,2.364-3.188,0.707
			c-1.306-1.414,0.151-1.987,0.768-2.827c0.098-0.133,0.236-0.237,0.323-0.376c0.736-1.157,0.233-2.203-0.912-2.018
			c-2.388,0.387-3.538,0.051-2.753-2.662c0.209-0.724-0.395-1.224-0.908-1.631c-1.033-0.819-1.405,0.304-1.896,0.769
			c-2.405,2.284-4.755,4.626-6.891,6.72C11.997,19.758,18.512,26.296,25.508,33.317z"/>
		<path fill-rule="evenodd" clip-rule="evenodd" fill="#323232" d="M34.044,44.939c-1.635-0.62-2.372,0.681-3.265,1.566
			c-4.073,4.041-8.106,8.121-12.193,12.147c-1.027,1.013-1.827,2.371-3.445,2.626c-0.134-0.738-0.267-1.477-0.4-2.215
			c0.614-0.759,1.166-1.581,1.852-2.268C29.988,43.386,43.396,29.987,56.817,16.6c0.689-0.688,1.509-1.245,2.268-1.863
			c0.911,0.066,1.821,0.132,2.732,0.198c-2.508,3.699-6.039,6.433-9.104,9.604c-2.632,2.722-5.471,5.245-8.507,8.129
			c2.229,1.948,4.811,2.849,5.888,5.268c-1.665,0.503-1.457,1.866-0.685,2.625c0.72,0.706,2.141,1.053,2.641-0.671
			c2.325,1.71,4.343,3.728,6.054,6.05c-0.793,0.045-1.586,0.09-2.379,0.135c-0.652-0.058-1.346-0.284-1.951-0.142
			c-2.419,0.573-3.278,0.24-1.932-2.393c0.549-1.073-0.611-1.825-1.714-1.654c-0.751,0.116-1.427,0.721-2.136,1.106
			c-0.118-1.103-0.926-0.974-1.681-0.942c-0.014-0.164-0.104-0.38-0.032-0.484c2.025-2.936,1.961-3.249-1.209-3.473
			c-0.907-0.063-1.707-0.09-1.938-0.94c-0.477-1.754-1.311-1.647-2.367-0.607c-2.229,2.192-4.417,4.427-6.618,6.648
			c-0.555,0.56-0.306,1.218-0.199,1.854L34.044,44.939z"/>
		<path fill-rule="evenodd" clip-rule="evenodd" fill="#323232" d="M60.052,47.886c2.329,1.818,5.51,3.614,5.835,6.341
			c0.322,2.694-3.33,4.129-5.085,6.248c-0.735,0.888-1.616,1.656-2.444,2.465c-2.716,2.651-4.43,3.122-7.068,0.653
			c-5.912-5.533-11.494-11.421-17.165-17.21c-0.254-0.259-0.063-0.953-0.08-1.443l-0.096,0.108c1.998-0.687,3.049,0.729,4.205,1.899
			c5.349,5.416,10.694,10.832,15.89,16.096c3.021-3.122,5.766-5.96,8.567-8.856c-0.486-0.885-2.484,0.987-2.808-1.239
			c-0.508-3.496-0.65-3.477-3.704-1.547c-0.139,0.088-0.266,0.196-0.399,0.292c-0.497,0.352-0.921,0.186-1.285-0.21
			c-0.354-0.384-0.592-0.854-0.184-1.299c0.431-0.47,0.963-0.848,1.45-1.266C57.143,48.595,59.013,49.997,60.052,47.886z"/>
		<path fill-rule="evenodd" clip-rule="evenodd" fill="#0B0B0B" d="M61.817,14.935c-0.911-0.066-1.821-0.132-2.732-0.198
			c0.57-0.411,1.087-0.928,0.496-1.6c-1.096-1.248-2.257-2.442-3.445-3.603c-1.42-1.387-2.668-0.704-3.838,0.428
			c-0.165-0.759-0.33-1.518-0.496-2.276c0.243-1.086,1.456-0.969,2.102-1.773c2.6-3.24,5.091-3.59,8.031-1.577
			c3.169,2.169,3.837,5.127,1.946,8.621C63.404,13.835,62.863,14.648,61.817,14.935z"/>
		<path fill-rule="evenodd" clip-rule="evenodd" fill="#0B0B0B" d="M14.74,59.064c0.133,0.738,0.267,1.477,0.4,2.215
			c-2.931,1.899-6.384,2.302-9.621,3.309c-1.605,0.499-2.641-0.488-2.158-2.053c1.1-3.564,1.624-7.354,3.88-10.493
			c0.998,0.004,1.995,0.007,2.992,0.01c-0.297,0.388-0.706,0.732-0.871,1.17C8.66,55.077,12.478,59.198,14.74,59.064z"/>
		<path fill-rule="evenodd" clip-rule="evenodd" fill="#0B0B0B" d="M60.052,47.886c-1.039,2.111-2.909,0.709-4.371,1.032
			c0.542-0.939,0.569-1.888,0.045-2.844c0.793-0.045,1.586-0.09,2.379-0.135C58.966,46.376,59.613,47.026,60.052,47.886z"/>
		<path fill-rule="evenodd" clip-rule="evenodd" fill="#0B0B0B" d="M52.051,39.89c-0.5,1.724-1.921,1.377-2.641,0.671
			c-0.772-0.759-0.98-2.122,0.685-2.625C50.958,38.376,51.61,39.026,52.051,39.89z"/>
		<path fill-rule="evenodd" clip-rule="evenodd" fill="none" d="M14.74,59.064c-2.263,0.134-6.08-3.987-5.377-5.843
			c0.166-0.438,0.574-0.782,0.871-1.17c3.5-3.384,7.041-6.728,10.494-10.158c8.693-8.638,17.359-17.304,26.007-25.986
			c1.914-1.922,3.711-3.961,5.563-5.946c1.17-1.132,2.418-1.814,3.838-0.428c1.188,1.161,2.35,2.355,3.445,3.603
			c0.591,0.672,0.074,1.189-0.496,1.6c-0.759,0.618-1.578,1.176-2.268,1.863C43.396,29.987,29.988,43.386,16.592,56.797
			C15.906,57.483,15.354,58.306,14.74,59.064z"/>
		<path fill-rule="evenodd" clip-rule="evenodd" fill="none" d="M25.508,33.317c-6.997-7.021-13.512-13.559-20.133-20.204
			c2.136-2.094,4.486-4.436,6.891-6.72c0.49-0.465,0.863-1.588,1.896-0.769c0.514,0.407,1.118,0.908,0.908,1.631
			c-0.784,2.713,0.365,3.049,2.753,2.662c1.145-0.185,1.648,0.861,0.912,2.018c-0.087,0.139-0.226,0.243-0.323,0.376
			c-0.617,0.84-2.074,1.413-0.768,2.827c1.53,1.657,2.2-0.041,3.188-0.707c1.336-0.9,2.477-0.496,2.25,0.933
			c-0.342,2.156-0.326,3.216,2.359,2.585c1.469-0.345,2.123,0.68,1.477,2.136c-0.261,0.588-0.871,1.034-1.08,1.63
			c-0.21,0.601-0.131,1.301,0.378,1.847c0.645,0.691,1.187,0.216,1.696-0.164c0.528-0.394,0.945-0.963,1.511-1.273
			c0.983-0.537,1.791,0.114,1.686,0.959c-0.284,2.28,0.602,4.898-2.127,6.558C27.623,30.471,26.7,32.018,25.508,33.317z"/>
		<path fill-rule="evenodd" clip-rule="evenodd" fill="none" d="M55.726,46.074c0.524,0.956,0.497,1.904-0.045,2.844
			c-0.487,0.418-1.02,0.796-1.45,1.266c-0.408,0.444-0.17,0.915,0.184,1.299c0.364,0.396,0.788,0.562,1.285,0.21
			c0.134-0.096,0.261-0.204,0.399-0.292c3.054-1.93,3.196-1.949,3.704,1.547c0.323,2.227,2.321,0.354,2.808,1.239
			c-2.802,2.896-5.547,5.734-8.567,8.856c-5.195-5.264-10.541-10.68-15.89-16.096c-1.156-1.171-2.207-2.586-4.205-1.899
			c-0.106-0.637-0.355-1.295,0.199-1.854c2.201-2.222,4.39-4.456,6.618-6.648c1.057-1.04,1.891-1.146,2.367,0.607
			c0.231,0.851,1.031,0.877,1.938,0.94c3.17,0.224,3.234,0.537,1.209,3.473c-0.071,0.104,0.019,0.32,0.032,0.484
			c-0.349,0.619-0.294,1.248,0.304,1.591c0.624,0.356,1.145,0.054,1.377-0.648c0.709-0.386,1.385-0.99,2.136-1.106
			c1.103-0.171,2.263,0.581,1.714,1.654c-1.347,2.633-0.487,2.966,1.932,2.393C54.38,45.79,55.073,46.017,55.726,46.074z"/>
		<path fill-rule="evenodd" clip-rule="evenodd" fill="#0B0B0B" d="M47.993,42.992c-0.232,0.702-0.753,1.005-1.377,0.648
			c-0.598-0.343-0.652-0.972-0.304-1.591C47.067,42.019,47.875,41.89,47.993,42.992z"/>
	</g>
</g>
</svg>
