<?xml version="1.0" encoding="utf-8"?>
<!-- Generator: Adobe Illustrator 16.0.1, SVG Export Plug-In . SVG Version: 6.00 Build 0)  -->
<!DOCTYPE svg PUBLIC "-//W3C//DTD SVG 1.1//EN" "http://www.w3.org/Graphics/SVG/1.1/DTD/svg11.dtd">
<svg version="1.1" id="Слой_1" xmlns="http://www.w3.org/2000/svg" xmlns:xlink="http://www.w3.org/1999/xlink" x="0px" y="0px"
	 width="67.992px" height="67.992px" viewBox="0 0 67.992 67.992" enable-background="new 0 0 67.992 67.992" xml:space="preserve">
<g>
	<g>
		<path fill-rule="evenodd" clip-rule="evenodd" fill="#FFFFFF" d="M1,67.992C1,45.661,1,23.33,1,1c22.331,0,44.661,0,66.992,0
			c0,22.33,0,44.661,0,66.992C45.661,67.992,23.331,67.992,1,67.992z M4.341,64.834c0.771-0.297,1.458-0.716,2.188-0.818
			c4.511-0.631,8.336-2.164,11.713-5.621c14.313-14.655,28.9-29.043,43.385-43.532c1.585-1.585,3.387-3.046,3.389-6.056
			c-1.219-2.831-3.137-5.326-7.275-5.952c-1.446,1.106-3.188,2.217-4.661,3.61c-3.145,2.977-6.147,6.1-9.212,9.16
			c-2.558,2.554-5.121,5.101-7.888,7.856c-3.886-3.886-7.489-7.528-11.137-11.126c-3.621-3.571-7.088-7.312-10.33-10.207
			C10.196,6.464,6.24,10.42,2.081,14.579c2.15,2.15,4.596,4.596,7.042,7.043c2.355,2.355,4.737,4.685,7.059,7.073
			c2.385,2.453,5.016,4.692,7.159,7.459C18.01,41.485,12.964,46.55,7.893,51.589c-1.63,1.619-2.73,3.362-2.97,5.793
			c-0.216,2.19-1.087,4.316-1.646,6.387C3.751,64.244,4.105,64.598,4.341,64.834z M54.146,63.909
			c-6.698-6.699-12.742-12.742-18.798-18.798c-0.479,0.517-0.9,0.969-0.782,0.842c6.649,6.65,13.207,13.208,20.012,20.013
			c3.589-3.935,7.994-7.614,11.504-11.854c-6.78-6.781-13.316-13.316-19.52-19.52c-1.001,0.985-2.134,2.102-3.456,3.402
			c0.669,0,1.323,0.12,1.905-0.034c0.559-0.148,1.043-0.581,1.561-0.887c1.976,2.577,1.976,2.577-0.422,5.477
			c0.443,0.492,0.882,0.98,1.707,1.896c1.064-1.065,2.061-2.063,3.033-3.036c1.123,0.814,1.754,1.981,0.646,3.562
			c-0.178,0.255-0.199,0.618-0.422,1.362c1.499-0.425,2.519-0.713,3.482-0.985c0.711,0.615,1.571,1.362,2.95,2.559
			c-1.118,1.117-2.104,2.104-2.822,2.821c0.114,0.244,0.381,0.816,0.646,1.387c1.22-1.22,2.162-2.162,3.134-3.134
			c0.801,0.835,1.603,1.671,2.416,2.521c-0.605,0.647-1.25,1.338-1.894,2.026c0.512,0.51,0.983,0.981,1.283,1.282
			c0.879-0.305,1.656-0.575,2.846-0.987c-0.24,2.308-1.381,2.799-2.791,3.425c-1.137,0.504-1.957,1.766-2.856,2.746
			C56.508,61.085,55.576,62.236,54.146,63.909z"/>
		<path fill-rule="evenodd" clip-rule="evenodd" d="M4.341,64.834c-0.236-0.236-0.589-0.59-1.064-1.065
			c0.559-2.07,1.43-4.196,1.646-6.387c0.24-2.431,1.34-4.174,2.97-5.793c5.072-5.039,10.118-10.104,15.449-15.434
			c-2.143-2.768-4.774-5.007-7.159-7.459c-2.322-2.388-4.704-4.718-7.059-7.073c-2.447-2.447-4.893-4.893-7.042-7.043
			C6.24,10.42,10.196,6.464,14.513,2.148c3.242,2.895,6.709,6.636,10.33,10.207c3.647,3.598,7.25,7.24,11.137,11.126
			c2.767-2.755,5.33-5.303,7.888-7.856c3.064-3.06,6.067-6.184,9.212-9.16c1.473-1.393,3.215-2.503,4.661-3.61
			c4.139,0.626,6.057,3.121,7.275,5.952c-0.002,3.009-1.804,4.47-3.389,6.056C47.142,29.351,32.555,43.739,18.242,58.395
			c-3.377,3.457-7.203,4.99-11.713,5.621C5.798,64.118,5.112,64.537,4.341,64.834z M54.564,8.456
			C39.195,23.826,23.729,39.292,8.263,54.758c1.631,1.63,3.393,3.393,5.076,5.076C28.822,44.351,44.306,28.867,59.644,13.53
			C57.968,11.856,56.134,10.023,54.564,8.456z M13.502,5.003c-2.821,2.827-5.641,5.654-8.489,8.509
			c3.274,3.274,6.518,6.608,9.863,9.837c3.417,3.299,6.47,6.999,10.066,9.737c2.444-2.445,4.633-4.635,6.807-6.81
			c-0.2-0.245-0.503-0.615-0.854-1.045c0.424-0.852,0.833-1.675,1.295-2.602c-0.802-0.69-1.495-1.287-2.323-2
			c-1.282,1.279-2.341,2.335-3.372,3.364c-0.679-0.68-1.033-1.032-1.468-1.467c1.077-1.128,2.155-2.257,3.536-3.703
			c-0.845-0.935-1.458-1.615-1.863-2.062c-1.593,0.588-2.515,0.929-4.191,1.548c0.783-1.767,1.208-2.723,1.66-3.743
			c-0.835-0.668-1.556-1.246-2.534-2.029c-1.086,1.382-1.996,2.537-2.904,3.692c-0.747-0.747-1.218-1.218-1.69-1.69
			c1.074-1.167,2.148-2.333,3.368-3.658c-0.924-0.879-1.583-1.507-1.967-1.873c-1.387,0.402-2.334,0.677-4.06,1.177
			c0.782-1.438,1.142-2.099,1.517-2.787C15.153,6.654,14.329,5.83,13.502,5.003z"/>
		<path fill-rule="evenodd" clip-rule="evenodd" d="M54.146,63.909c1.43-1.673,2.361-2.824,3.362-3.914
			c0.899-0.98,1.72-2.242,2.856-2.746c1.41-0.626,2.551-1.117,2.791-3.425c-1.189,0.412-1.967,0.683-2.846,0.987
			c-0.3-0.301-0.771-0.772-1.283-1.282c0.644-0.688,1.288-1.379,1.894-2.026c-0.813-0.85-1.615-1.686-2.416-2.521
			c-0.972,0.972-1.914,1.914-3.134,3.134c-0.266-0.57-0.532-1.143-0.646-1.387c0.719-0.718,1.704-1.704,2.822-2.821
			c-1.379-1.196-2.239-1.943-2.95-2.559c-0.964,0.272-1.983,0.561-3.482,0.985c0.223-0.744,0.244-1.107,0.422-1.362
			c1.108-1.58,0.478-2.747-0.646-3.562c-0.973,0.974-1.969,1.971-3.033,3.036c-0.825-0.916-1.264-1.404-1.707-1.896
			c2.397-2.899,2.397-2.899,0.422-5.479c-0.518,0.308-1.002,0.74-1.561,0.889c-0.582,0.154-1.236,0.034-1.905,0.034
			c1.322-1.301,2.455-2.417,3.456-3.402c6.203,6.203,12.739,12.738,19.52,19.52c-3.51,4.239-7.915,7.919-11.504,11.854
			c-6.805-6.805-13.362-13.362-20.012-20.013c-0.118,0.127,0.303-0.325,0.782-0.842C41.404,51.167,47.448,57.21,54.146,63.909z"/>
		<path fill-rule="evenodd" clip-rule="evenodd" fill="#FFFFFF" d="M54.564,8.456c1.569,1.567,3.403,3.4,5.079,5.074
			C44.306,28.867,28.822,44.351,13.339,59.834c-1.683-1.684-3.445-3.446-5.076-5.076C23.729,39.292,39.195,23.826,54.564,8.456z"/>
		<path fill-rule="evenodd" clip-rule="evenodd" fill="#FFFFFF" d="M13.503,5.004c0.826,0.825,1.649,1.65,2.395,2.395
			c-0.375,0.688-0.735,1.35-1.517,2.787c1.725-0.5,2.672-0.774,4.06-1.177c0.384,0.365,1.043,0.993,1.967,1.873
			c-1.22,1.324-2.293,2.491-3.367,3.659c0.471,0.472,0.942,0.942,1.689,1.689c0.909-1.155,1.818-2.31,2.904-3.692
			c0.979,0.783,1.699,1.36,2.534,2.029c-0.452,1.021-0.876,1.977-1.66,3.743c1.676-0.619,2.598-0.96,4.191-1.548
			c0.405,0.447,1.018,1.127,1.863,2.062c-1.381,1.446-2.459,2.575-3.536,3.703c0.436,0.435,0.789,0.788,1.468,1.467
			c1.03-1.028,2.089-2.084,3.372-3.364c0.828,0.713,1.521,1.31,2.323,2c-0.461,0.927-0.871,1.75-1.295,2.602
			c0.351,0.43,0.654,0.8,0.854,1.045c-2.174,2.174-4.363,4.365-6.807,6.81c-3.596-2.739-6.649-6.438-10.066-9.737
			c-3.345-3.229-6.588-6.563-9.863-9.837C7.861,10.658,10.681,7.83,13.503,5.004z"/>
	</g>
</g>
</svg>
