<?xml version="1.0" encoding="utf-8"?>
<!-- Generator: Adobe Illustrator 16.0.1, SVG Export Plug-In . SVG Version: 6.00 Build 0)  -->
<!DOCTYPE svg PUBLIC "-//W3C//DTD SVG 1.1//EN" "http://www.w3.org/Graphics/SVG/1.1/DTD/svg11.dtd">
<svg version="1.1" id="Слой_1" xmlns="http://www.w3.org/2000/svg" xmlns:xlink="http://www.w3.org/1999/xlink" x="0px" y="0px"
	 width="74.991px" height="74.991px" viewBox="0 0 74.991 74.991" enable-background="new 0 0 74.991 74.991" xml:space="preserve">
<g>
	<g>
		<path fill-rule="evenodd" clip-rule="evenodd" fill="none" d="M19.998,1C38.329,1,56.66,1,74.991,1c0,24.664,0,49.327,0,73.991
			c-24.664,0-49.328,0-73.991,0c0-13.332,0-26.664,0-39.996c2.059-0.737,2.734,1.418,4.094,2.102
			c4.057,2.043,8.493,2.02,12.754,2.799c2.617,0.479,5.356-0.341,8.048-0.727c4.221-0.604,7.653-2.431,11.233-4.427
			c-1.382-7.148-3.697-13.445-10.1-17.518c0-0.484,0-1.139,0-1.758c0.697-0.737,1.995-0.354,2.484-1.557
			c5.158,0.654,10.656-1.285,15.559,2.037c0.566,0.383,1.617,0.052,2.32,0.052c2.413,1.872,3.936,4.555,6.6,6
			c0.123,0.604-0.296,1.302,0.322,1.822c1.962,1.65,3.332,3.948,5.678,5.177c-0.729,3.653,1.092,7.131,1.002,10.513
			c-1.786,1.672-2.947,3.289-3.002,5.484c-1.579,0.392-2.16,1.448-2,3c-1.579,0.392-2.16,1.448-2,3
			c-0.284,0.118-0.69,0.153-0.835,0.365c-2.634,3.865-5.236,7.752-7.89,11.696c-3.938,0-7.92,0-11.041,0
			c-3.333,1.084-5.088,2.823-6.12,6.041c0,0.718,0,2.168,0,3.506c0.464,0.465,0.818,0.818,1.28,1.28c12.671,0,25.453,0,38.191,0
			c2.257-1.394,1.189-3.567,1.354-5.033c-1.836-4.64-5.098-6.292-9.641-5.902c-1.407,0.121-2.941,0.435-4.28-0.356
			c-0.252-2.184,1.128-3.583,2.047-5.235c1.352-2.428,3.849-4.262,3.933-7.361c1.579-0.392,2.161-1.448,2-3
			c2.331-1.259,2.927-3.803,4.435-5.859c3.852-0.447,4.89-3.854,6.413-6.615c-0.954-1.212-0.965-3.167-2.849-3.523
			c0.025-0.692-0.308-1.025-1-1c-0.338-2.118-2.638-1.924-3.773-3.18c-1.261-1.393-2.348-3.074-4.226-3.82
			c-0.123-0.604,0.297-1.302-0.321-1.822c-1.962-1.65-3.333-3.948-5.678-5.177c0.025-0.692-0.308-1.025-1-1
			c0.007-0.807,0.123-1.583-0.674-2.218c-0.734-0.585-1.345-1.205-1.38-2.411c-0.125-4.24-2.836-6.333-6.383-7.453
			c-2.061,0.679-3.752,1.478-4.976,3.011C36.441,5.871,31.429,7.98,26.239,6.74c-1.078-0.598-0.985-1.945-1.752-2.742
			C23.99,4,23.493,4,22.997,4c-0.321-1.154-0.978-1.895-2.256-2.018C20.252,1.935,19.885,1.601,19.998,1z"/>
		<path fill-rule="evenodd" clip-rule="evenodd" d="M22.899,3.996C23.493,4,23.99,4,24.487,3.999
			c0.767,0.797,0.674,2.144,1.752,2.742c5.189,1.24,10.202-0.87,15.342-0.814c1.224-1.533,2.915-2.332,4.976-3.011
			c3.547,1.12,6.258,3.213,6.383,7.453c0.035,1.206,0.646,1.826,1.38,2.411c0.797,0.635,0.681,1.412,0.674,2.218
			c-1.201-0.192-1.605-1.421-2.718-2.05c-0.365,1.415-2.42,1.622-2.278,3.795c0.99,0.919,2.123,2.064,3.36,3.083
			c0.768,0.631,0.628,1.391,0.636,2.172c-2.664-1.444-4.187-4.127-6.6-6c-0.703,0-1.754,0.331-2.32-0.052
			c-4.903-3.322-10.401-1.383-15.559-2.037c-0.49,1.203-1.788,0.82-2.484,1.557c0,0.619,0,1.273,0,1.758
			c6.403,4.073,8.718,10.37,10.1,17.518c-3.58,1.997-7.013,3.823-11.233,4.427c-2.692,0.386-5.431,1.205-8.048,0.727
			c-4.261-0.779-8.697-0.756-12.754-2.799C3.734,36.414,3.059,34.259,1,34.996c0-0.333,0-0.667,0-1
			c0.631,0.113,0.942-0.269,0.987-0.791c0.446-5.086,2.389-9.439,6.203-12.906c1.347-1.225,2.655-2.49,3.84-3.604
			c0-3.291,0-6.276,0-8.417c1.189-3.927,3.613-5.51,6.605-6.455C18.824,1.764,18.88,1.284,18.998,1c0.333,0,0.667,0,1,0
			c-0.113,0.601,0.255,0.935,0.743,0.981C22.02,2.104,22.676,2.845,22.899,3.996c-1.156-0.05-2.545,0.403-3.316-0.75
			c-2.137,0.723-4.421,1.193-5.37,3.038c0,3.778,0,7.22,0,10.619c1.752,0.286,3.525-0.443,4.674,1.396
			c1.768-2.002,4.105-0.909,6.201-1.542C24.605,12.352,26.158,7.822,22.899,3.996z M4.086,34.798
			c3.143,2.088,6.62,2.599,9.915,3.073c3.739,0.537,7.767,0.777,11.384-0.071c3.199-0.751,6.904-0.696,9.628-3.604
			c0.232-6.252-3.187-11.012-7.458-15.136c-5.596,0-10.889,0-15.932,0C6.498,23.079,3.313,27.851,4.086,34.798z M50.994,7.918
			c-1.06-1.277-1.795-2.164-2.378-2.867c-1.598,0-2.912,0-3.732,0c-2.396,1.225-3.055,3.232-3.889,5.122
			c0.895,2.509,2.398,4.363,5.195,4.825c1.766-1.028,3.745-1.781,4.804-3.722C50.994,10.113,50.994,8.951,50.994,7.918z
			 M40.103,8.271C35.278,7.168,31.358,9.668,27.1,8.94c0,1.529,0,2.647,0,4.042c4.436,0.195,8.554-1.682,12.708-1.063
			c0.558-1.402-0.326-1.829-0.771-2.431C39.344,9.139,39.646,8.793,40.103,8.271z"/>
		<path fill-rule="evenodd" clip-rule="evenodd" fill="none" d="M18.998,1c-0.117,0.284-0.173,0.764-0.361,0.823
			c-2.993,0.945-5.416,2.528-6.605,6.455c0,2.141,0,5.126,0,8.417c-1.185,1.114-2.494,2.379-3.84,3.604
			c-3.814,3.466-5.757,7.819-6.203,12.906C1.942,33.728,1.631,34.109,1,33.996C1,22.997,1,11.999,1,1C6.999,1,12.999,1,18.998,1z"/>
		<path fill-rule="evenodd" clip-rule="evenodd" d="M60.992,49.994c-0.084,3.1-2.581,4.934-3.933,7.361
			c-0.919,1.652-2.299,3.052-2.047,5.235c1.339,0.791,2.873,0.478,4.28,0.356c4.543-0.39,7.805,1.263,9.641,5.902
			c-0.165,1.466,0.902,3.64-1.354,5.033c-12.738,0-25.52,0-38.191,0c-0.462-0.462-0.816-0.815-1.28-1.28c0-1.338,0-2.788,0-3.506
			c1.031-3.218,2.786-4.957,6.12-6.041c3.121,0,7.103,0,11.041,0c2.653-3.944,5.256-7.831,7.89-11.696
			c0.145-0.212,0.551-0.247,0.835-0.365c0.033,1.874-1.192,3.154-2.082,4.629c-1.359,2.251-3.374,4.137-3.988,6.806
			c0.329,0.219,0.579,0.523,0.847,0.54c0.968,0.06,1.942,0.023,3.036,0.023c1.094-1.821,1.894-3.79,3.244-5.249
			C57.282,55.329,58.047,51.822,60.992,49.994z M64.489,64.992c-10.664,0-21.327,0-31.993-0.002
			c-0.824,0.826-1.647,1.651-2.337,2.344c0,1.59,0,3.048,0,4.569c12.278,0,24.392,0,36.669,0c0-1.522,0-2.981,0-4.567
			C66.138,66.642,65.314,65.815,64.489,64.992z"/>
		<path fill-rule="evenodd" clip-rule="evenodd" d="M61.992,22.997c1.878,0.746,2.965,2.427,4.226,3.82
			c1.136,1.256,3.436,1.062,3.773,3.18c-1.805,0-3.61,0-4.977,0c-1.24,1.001-2.237,1.806-2.931,2.366c0,1.742,0,3.03,0,3.791
			c0.999,1.22,1.72,2.1,2.3,2.809c1.911,0,3.543,0,5.175,0c2.475-0.592,0.576-3.542,2.423-4.451c-1.4-0.872-0.932-2.267-0.99-3.515
			c1.884,0.356,1.895,2.312,2.849,3.523c-1.523,2.762-2.562,6.168-6.413,6.615c-1.508,2.057-2.104,4.601-4.435,5.859
			c-0.28-2.178,1.92-3.461,2.06-5.624c-0.904-0.294-1.123-1.65-2.661-1.311c-0.683,1.127-2.313,1.715-2.611,3.548
			c-0.083,0.511-0.798,1.426-1.786,1.387c0.055-2.195,1.216-3.813,3.002-5.484c0.09-3.382-1.731-6.86-1.002-10.513
			c0.807-0.144,0.979,0.709,1.533,0.964c0.873-1.145,2.719-0.933,3.38-2.403C64.091,25.953,61.581,25.407,61.992,22.997z"/>
		<path fill-rule="evenodd" clip-rule="evenodd" d="M55.993,15.998c2.345,1.229,3.716,3.527,5.678,5.177
			c0.618,0.52,0.198,1.217,0.321,1.822c-2.345-1.229-3.716-3.527-5.677-5.177C55.697,17.301,56.116,16.603,55.993,15.998z"/>
		<path fill-rule="evenodd" clip-rule="evenodd" d="M59.993,28.997c-2.346-1.229-3.716-3.527-5.678-5.177
			c-0.618-0.52-0.199-1.218-0.322-1.822c2.346,1.229,3.716,3.527,5.678,5.177C60.289,27.694,59.87,28.392,59.993,28.997z"/>
		<path fill-rule="evenodd" clip-rule="evenodd" d="M55.993,47.994c-0.16-1.552,0.421-2.608,2-3
			C58.153,46.546,57.572,47.603,55.993,47.994z"/>
		<path fill-rule="evenodd" clip-rule="evenodd" d="M62.992,46.994c0.161,1.552-0.421,2.608-2,3
			C60.832,48.442,61.413,47.386,62.992,46.994z"/>
		<path fill-rule="evenodd" clip-rule="evenodd" d="M53.993,50.994c-0.16-1.552,0.421-2.608,2-3
			C56.154,49.546,55.572,50.603,53.993,50.994z"/>
		<path fill-rule="evenodd" clip-rule="evenodd" d="M54.993,14.998c0.692-0.025,1.025,0.308,1,1
			C55.302,16.023,54.968,15.69,54.993,14.998z"/>
		<path fill-rule="evenodd" clip-rule="evenodd" d="M69.991,29.997c0.692-0.025,1.025,0.307,1,1
			C70.3,31.021,69.966,30.688,69.991,29.997z"/>
		<path fill-rule="evenodd" clip-rule="evenodd" fill="none" d="M4.086,34.798c-0.773-6.947,2.411-11.719,7.538-15.739
			c5.043,0,10.335,0,15.932,0c4.271,4.125,7.69,8.884,7.458,15.136c-2.725,2.908-6.43,2.854-9.628,3.604
			c-3.617,0.849-7.645,0.608-11.384,0.071C10.707,37.397,7.229,36.887,4.086,34.798z"/>
		<path fill-rule="evenodd" clip-rule="evenodd" fill="none" d="M22.801,3.991c3.356,3.832,1.804,8.361,2.287,12.766
			c-2.096,0.633-4.433-0.46-6.201,1.542c-1.149-1.84-2.922-1.11-4.674-1.396c0-3.399,0-6.841,0-10.619
			c0.949-1.844,3.233-2.315,5.37-3.038C20.354,4.399,21.743,3.946,22.801,3.991z"/>
		<path fill-rule="evenodd" clip-rule="evenodd" fill="none" d="M54.993,14.998c-0.025,0.692,0.309,1.025,1,1
			c0.123,0.604-0.296,1.303,0.322,1.822c1.961,1.65,3.332,3.948,5.677,5.177c-0.411,2.41,2.099,2.956,2.914,4.56
			c-0.661,1.471-2.507,1.259-3.38,2.403c-0.555-0.255-0.727-1.107-1.533-0.964c-0.123-0.604,0.296-1.303-0.322-1.822
			c-1.962-1.65-3.332-3.948-5.678-5.177c-0.008-0.781,0.132-1.541-0.636-2.172c-1.237-1.019-2.37-2.164-3.36-3.083
			c-0.142-2.174,1.913-2.381,2.278-3.795C53.388,13.577,53.792,14.806,54.993,14.998z"/>
		<path fill-rule="evenodd" clip-rule="evenodd" fill="none" d="M50.994,7.918c0,1.033,0,2.195,0,3.358
			c-1.059,1.941-3.038,2.694-4.804,3.722c-2.797-0.462-4.301-2.316-5.197-4.826c0.836-1.889,1.494-3.896,3.891-5.121
			c0.82,0,2.135,0,3.732,0C49.199,5.754,49.935,6.641,50.994,7.918z"/>
		<path fill-rule="evenodd" clip-rule="evenodd" fill="none" d="M40.103,8.271c-0.456,0.521-0.759,0.867-1.065,1.217
			c0.444,0.603,1.328,1.029,0.771,2.431c-4.154-0.619-8.272,1.258-12.708,1.063c0-1.395,0-2.513,0-4.042
			C31.358,9.668,35.278,7.168,40.103,8.271z"/>
		<path fill-rule="evenodd" clip-rule="evenodd" fill="none" d="M64.49,64.991c0.824,0.824,1.647,1.65,2.339,2.345
			c0,1.586,0,3.045,0,4.567c-12.277,0-24.392,0-36.669,0c0-1.521,0-2.979,0-4.569c0.689-0.692,1.513-1.518,2.338-2.343
			C43.162,64.992,53.825,64.992,64.49,64.991z"/>
		<path fill-rule="evenodd" clip-rule="evenodd" fill="none" d="M53.993,50.994c1.579-0.392,2.161-1.448,2-3
			c1.579-0.392,2.16-1.448,2-3c0.988,0.039,1.703-0.876,1.786-1.387c0.298-1.833,1.929-2.421,2.611-3.548
			c1.538-0.34,1.757,1.017,2.661,1.311c-0.14,2.163-2.34,3.446-2.06,5.624c-1.579,0.392-2.16,1.448-2,3
			c-2.945,1.828-3.71,5.335-5.942,7.749c-1.351,1.459-2.15,3.428-3.244,5.249c-1.094,0-2.068,0.036-3.036-0.023
			c-0.268-0.017-0.518-0.321-0.847-0.54c0.614-2.669,2.629-4.555,3.988-6.806C52.801,54.148,54.026,52.868,53.993,50.994z"/>
		<path fill-rule="evenodd" clip-rule="evenodd" fill="none" d="M69.991,29.997c-0.025,0.692,0.309,1.025,1,1
			c0.059,1.248-0.41,2.643,0.99,3.515c-1.847,0.909,0.052,3.859-2.423,4.451c-1.632,0-3.264,0-5.175,0
			c-0.58-0.709-1.301-1.589-2.3-2.809c0-0.761,0-2.049,0-3.791c0.693-0.56,1.69-1.364,2.931-2.366
			C66.381,29.997,68.187,29.997,69.991,29.997z"/>
		
			<path fill-rule="evenodd" clip-rule="evenodd" fill="none" stroke="#000000" stroke-width="2" stroke-linecap="round" stroke-linejoin="round" stroke-miterlimit="10" d="
			M46.994,63.492c-1.771,0.845-3.661,0.383-5.499,0.503c-3.164,0.206-6.38-0.575-9.785,0.782c-0.548,0.548-1.38,1.382-2.202,2.203
			c-0.219,1.844-1.233,3.678,0.257,6.011c12.396,0,25.062,0,37.724,0c0.742-2.167,0.642-3.833,0.072-5.317
			c-0.454-1.556-1.769-2.155-2.577-3.191c-2.283-0.752-4.68-0.681-6.983-0.418c-2.204,0.252-4.229-1.213-6.56-0.191
			c-1.009,0.442-2.726,0.677-3.947-0.381"/>
		
			<path fill-rule="evenodd" clip-rule="evenodd" fill="none" stroke="#000000" stroke-width="2" stroke-linecap="round" stroke-linejoin="round" stroke-miterlimit="10" d="
			M26.997,13.999c1.5-0.167,3.07-0.111,4.48-0.561c1.52-0.483,3.012-0.32,4.517-0.457c1.501-0.137,3.093,0.508,4.508-0.431
			c1.87-1.393-1.875-1.796-0.067-3.118c-0.122-0.444,0.693-0.622,0.561-1.449c-0.513-0.299-0.681-1.069-1.501-0.994
			c-2.164,0.196-4.453-0.033-6.465,0.611c-2.185,0.7-4.468-0.102-6.503,0.595c-1.448,3.182,0.86,6.476-1.237,9.615
			c-1.868,0.605-4.264,0.534-6.281,0.45c-2.084-0.087-4.486,0.504-6.297-0.938c-7.86,6.504-9.659,9.722-9.712,17.325
			c3.744,3.618,8.801,3.798,13.51,4.232c6.845,0.632,13.545-0.468,19.643-4.328c-1.011-6.885-3.308-12.884-9.655-16.553"/>
		
			<path fill-rule="evenodd" clip-rule="evenodd" fill="none" stroke="#000000" stroke-width="2" stroke-linecap="round" stroke-linejoin="round" stroke-miterlimit="10" d="
			M61.992,39.495c-2.495,2.211-3.71,5.302-5.501,7.998c-2.992,4.505-5.953,9.031-9.042,13.468c-0.504,0.725-0.354,1.348-0.455,2.031
			"/>
		
			<path fill-rule="evenodd" clip-rule="evenodd" fill="none" stroke="#000000" stroke-width="2" stroke-linecap="round" stroke-linejoin="round" stroke-miterlimit="10" d="
			M65.992,40.995c0.174,2.291-1.617,3.743-2.591,5.447c-2.563,4.487-5.43,8.824-8.5,12.983c-0.878,1.189-0.646,2.512-1.408,3.566"/>
		
			<path fill-rule="evenodd" clip-rule="evenodd" fill="none" stroke="#000000" stroke-width="2" stroke-linecap="round" stroke-linejoin="round" stroke-miterlimit="10" d="
			M25.997,7.499c-1.604-2.497-3.648-4.476-6.682-5.195c-1.602,1.351-4.692,1.049-5.753,3.796c-0.985,3.531-0.401,7.231-0.563,10.897
			"/>
		
			<path fill-rule="evenodd" clip-rule="evenodd" fill="none" stroke="#000000" stroke-width="2" stroke-linecap="round" stroke-linejoin="round" stroke-miterlimit="10" d="
			M52.494,11.999c4.695,5.473,9.393,10.947,14.567,16.979c0.605,0.502,2.366,0.021,3.502,1.461c1.01,1.28,1.204,2.968,2.368,4.103
			c-1.442,1.083-0.938,3.325-2.89,4.792c-1.013,0.291-2.531,0.728-4.05,1.163c-1.693,0.255-1.921-2.055-3.16-1.649
			c-2.144-2.217-1.805-4.576-1.841-6.85c1.434-1.502,2.961-2.869,5.001-3.5"/>
		
			<path fill-rule="evenodd" clip-rule="evenodd" fill="none" stroke="#000000" stroke-width="2" stroke-linecap="round" stroke-linejoin="round" stroke-miterlimit="10" d="
			M41.495,12.999c3.44,2.462,3.44,2.462,6.999,2.5c1.166-1.167,2.333-2.333,3.5-3.5c-0.058-1.512,0.246-3.064-0.498-4.5
			c0.164-0.333-0.059-0.606-0.493-1.01c-3.629-3.362-5.396-3.369-9.008,0.011c-0.172,0.161-0.334,0.332-0.5,0.499"/>
		
			<path fill-rule="evenodd" clip-rule="evenodd" fill="none" stroke="#000000" stroke-width="2" stroke-linecap="round" stroke-linejoin="round" stroke-miterlimit="10" d="
			M48.994,15.998c3,3.5,5.929,7.063,9.035,10.466c1.149,1.258,1.934,2.722,2.963,4.032"/>
	</g>
</g>
</svg>
