<?xml version="1.0" encoding="utf-8"?>
<!-- Generator: Adobe Illustrator 16.0.1, SVG Export Plug-In . SVG Version: 6.00 Build 0)  -->
<!DOCTYPE svg PUBLIC "-//W3C//DTD SVG 1.1//EN" "http://www.w3.org/Graphics/SVG/1.1/DTD/svg11.dtd">
<svg version="1.1" id="Слой_1" xmlns="http://www.w3.org/2000/svg" xmlns:xlink="http://www.w3.org/1999/xlink" x="0px" y="0px"
	 width="72.991px" height="73.991px" viewBox="0 0 72.991 73.991" enable-background="new 0 0 72.991 73.991" xml:space="preserve">
<g>
	<g>
		<path fill-rule="evenodd" clip-rule="evenodd" fill="none" d="M52.993,1c7,0,13.999,0.021,20.998-0.025
			c0.861-0.006,1.188,0.163,1.005,1.026C74.962,2.16,74.991,2.333,74.991,2.5c0,23.997-0.015,47.995,0.038,71.992
			c0.003,1.3-0.238,1.541-1.538,1.538c-23.664-0.053-47.328-0.053-70.992,0c-1.299,0.003-1.698-0.226-1.53-1.542
			C1.116,73.339,1,72.158,1,70.991c0.284,0.117,0.706,0.153,0.833,0.365c2.643,4.407,5.431,4.834,8.96,1.34
			c0.592-0.586,1.178-1.178,1.767-1.767c9.537-9.536,19.092-19.052,28.584-28.632c1.233-1.245,1.976-1.602,3.612-0.379
			c2.502,1.867,5.696,2.407,8.704,3.009c3.141,0.628,9.992-2.146,12.601-4.471c3.159-2.816,5.419-6.206,6.929-10.127
			c1.111-2.885,1.021-5.59,0.339-8.757c-0.94-4.37-3.209-7.894-5.66-11.133C65.038,6.966,61.552,3.896,56.867,3
			C56.052,1.411,53.653,2.889,52.993,1z"/>
		<path fill-rule="evenodd" clip-rule="evenodd" fill="none" d="M1,55.993C1,38.162,1.019,20.331,0.961,2.5
			C0.957,1.2,1.2,0.955,2.5,0.961C16.998,1.022,31.496,1,45.994,1c-2.042,2.406-5.265,2.906-7.679,4.892
			c-3.708,3.049-7.165,8.394-7.334,12.929c-0.163,4.356,0.177,8.561,2.658,12.347c0.67,1.023,0.648,2.067-0.342,3.05
			c-5.771,5.725-11.51,11.48-17.251,17.236c-0.703,0.706-1.355,0.778-2.058,0.033c-0.341-0.361-0.688-0.722-1.057-1.055
			c-2.19-1.979-3.726-1.951-5.814-0.08C5.051,52.204,3.522,54.639,1,55.993z"/>
		<path fill-rule="evenodd" clip-rule="evenodd" d="M1,55.993c2.522-1.354,4.051-3.789,6.118-5.641
			c2.088-1.871,3.624-1.899,5.814,0.08c0.369,0.333,0.715,0.693,1.057,1.055c0.703,0.745,1.355,0.673,2.058-0.033
			c5.741-5.756,11.48-11.512,17.251-17.236c0.99-0.982,1.012-2.026,0.342-3.05c-2.481-3.787-2.821-7.991-2.658-12.347
			c0.169-4.535,3.627-9.879,7.334-12.929C40.729,3.906,43.952,3.406,45.994,1c2.334,0,4.666,0,6.999,0
			c0.66,1.889,3.059,0.411,3.874,2c4.685,0.896,8.171,3.966,10.801,7.44c2.451,3.239,4.72,6.763,5.66,11.133
			c0.683,3.167,0.772,5.872-0.339,8.757c-1.51,3.921-3.77,7.311-6.929,10.127c-2.608,2.325-9.46,5.099-12.601,4.471
			c-3.008-0.602-6.202-1.142-8.704-3.009c-1.637-1.223-2.379-0.866-3.612,0.379c-9.492,9.58-19.047,19.096-28.584,28.632
			c-0.589,0.589-1.175,1.181-1.767,1.767c-3.529,3.494-6.318,3.067-8.96-1.34C1.706,71.145,1.284,71.108,1,70.991
			c0-1.333,0-2.666,0-3.999c1.648,0.007,0.651-1.949,1.865-2.46c0.846-0.355,1.973-1.332,1.978-2.038
			c0.004-0.696-1.202-1.452-1.958-2.086C2.287,59.906,2.003,58.957,1,58.993C1,57.993,1,56.993,1,55.993z M49.58,4.025
			c-2.558-0.468-4.945,0.554-7.431,1.882c-1.847,0.986-3.008,2.509-4.367,3.867c-4.725,4.716-5.633,11.353-2.859,17.694
			c2.017,4.61,4.841,8.277,9.093,11.209c6.218,4.287,14.112,4.821,20.345,0.242c5.502-4.042,8.064-10.866,5.906-18.33
			c-1.333-4.609-3.91-7.942-7.212-11.024C59.343,6.1,55.231,3.562,49.58,4.025z M7.184,71.985c1.692,0.369,2.329-1.04,3.209-1.916
			c8.708-8.663,17.385-17.356,26.07-26.042c4.362-4.363,4.338-4.336-0.304-8.42c-0.731-0.645-0.956-0.327-1.443,0.147
			c-1.853,1.805-2.974,4.154-4.867,5.989c-7.865,7.624-15.543,15.441-23.29,23.188c-0.704,0.704-1.515,1.333-2.086,2.132
			c-0.806,1.125-0.744,2.497-0.182,3.654C4.827,71.818,5.95,72.227,7.184,71.985z M12.97,54.521
			c-0.097-0.116-0.223-0.219-0.288-0.352c-1.088-2.224-3.395-2.79-5.127-1.219c-0.853,0.774-1.653,1.61-2.45,2.443
			c-1.582,1.653-1.523,1.612,0.213,3.454c1.047,1.111,1.874,1.708,3.131,0.237c1.174-1.374,2.54-2.583,3.822-3.865
			C12.504,54.988,12.737,54.755,12.97,54.521z"/>
		<path fill-rule="evenodd" clip-rule="evenodd" fill="none" d="M1,58.993c1.003-0.036,1.287,0.913,1.885,1.415
			c0.755,0.634,1.962,1.39,1.958,2.086c-0.004,0.706-1.131,1.683-1.978,2.038C1.651,65.043,2.648,66.999,1,66.992
			C1,64.325,1,61.659,1,58.993z"/>
		<path fill-rule="evenodd" clip-rule="evenodd" fill="none" d="M49.58,4.025c5.651-0.463,9.763,2.075,13.475,5.541
			c3.302,3.082,5.879,6.415,7.212,11.024c2.158,7.464-0.404,14.288-5.906,18.33c-6.232,4.579-14.127,4.045-20.345-0.242
			c-4.252-2.932-7.076-6.6-9.093-11.209c-2.774-6.341-1.865-12.978,2.859-17.694c1.359-1.357,2.521-2.881,4.367-3.867
			C44.635,4.579,47.022,3.557,49.58,4.025z M64.67,23.425c-0.21-0.404,0.682-1.832-0.018-3.351c-1.808-3.925-5.82-8.479-9.844-9.634
			c-2.889-0.829-5.997-0.998-9.031,0.231c-5.013,2.03-8.98,10.081-5.573,16.098c1.822,3.221,4.476,5.648,7.163,7.955
			c2.439,2.096,9.802,2.086,12.341-0.049C62.81,32.066,65.977,29.249,64.67,23.425z"/>
		<path fill-rule="evenodd" clip-rule="evenodd" fill="none" d="M7.184,71.985c-1.234,0.241-2.357-0.167-2.892-1.269
			c-0.563-1.157-0.624-2.529,0.182-3.654c0.572-0.799,1.383-1.428,2.086-2.132c7.747-7.746,15.425-15.563,23.29-23.188
			c1.893-1.835,3.014-4.184,4.867-5.989c0.488-0.475,0.712-0.792,1.443-0.147c4.642,4.084,4.666,4.057,0.304,8.42
			c-8.686,8.686-17.362,17.379-26.07,26.042C9.513,70.945,8.876,72.354,7.184,71.985z"/>
		<path fill-rule="evenodd" clip-rule="evenodd" fill="none" d="M12.97,54.521c-0.233,0.233-0.466,0.467-0.699,0.699
			c-1.282,1.282-2.648,2.491-3.822,3.865c-1.257,1.471-2.084,0.874-3.131-0.237c-1.736-1.842-1.795-1.801-0.213-3.454
			c0.797-0.833,1.597-1.669,2.45-2.443c1.732-1.571,4.039-1.005,5.127,1.219C12.747,54.303,12.873,54.405,12.97,54.521z"/>
		<path fill-rule="evenodd" clip-rule="evenodd" d="M64.67,23.425c1.307,5.824-1.86,8.642-4.962,11.25
			c-2.539,2.135-9.901,2.145-12.341,0.049c-2.688-2.307-5.341-4.734-7.163-7.955c-3.407-6.017,0.561-14.067,5.573-16.098
			c3.034-1.229,6.143-1.06,9.031-0.231c4.023,1.154,8.036,5.708,9.844,9.634C65.352,21.593,64.46,23.021,64.67,23.425z
			 M62.954,24.82c-0.255-0.779-0.092-1.934-0.69-3.251c-1.864-4.109-4.562-6.817-8.715-8.748c-2.612-1.215-4.533-0.869-6.69,0.2
			c-1.947,0.966-3.703,2.63-4.484,4.379c-0.662,1.485-2.085,3.265-1.183,5.299c1.986,4.477,4.361,8.176,9.263,10.534
			C56.481,36.133,63.432,30.139,62.954,24.82z"/>
		<path fill-rule="evenodd" clip-rule="evenodd" fill="none" d="M62.954,24.82c0.478,5.319-6.473,11.313-12.5,8.413
			c-4.901-2.358-7.276-6.057-9.263-10.534c-0.902-2.034,0.521-3.814,1.183-5.299c0.781-1.749,2.537-3.414,4.484-4.379
			c2.157-1.069,4.078-1.415,6.69-0.2c4.153,1.931,6.851,4.639,8.715,8.748C62.862,22.887,62.699,24.041,62.954,24.82z"/>
	</g>
</g>
</svg>
