<?xml version="1.0" encoding="utf-8"?>
<!-- Generator: Adobe Illustrator 16.0.1, SVG Export Plug-In . SVG Version: 6.00 Build 0)  -->
<!DOCTYPE svg PUBLIC "-//W3C//DTD SVG 1.1//EN" "http://www.w3.org/Graphics/SVG/1.1/DTD/svg11.dtd">
<svg version="1.1" id="Слой_1" xmlns="http://www.w3.org/2000/svg" xmlns:xlink="http://www.w3.org/1999/xlink" x="0px" y="0px"
	 width="255.968px" height="255.968px" viewBox="0 0 255.968 255.968" enable-background="new 0 0 255.968 255.968"
	 xml:space="preserve">
<g>
	<g>
		<path fill-rule="evenodd" clip-rule="evenodd" fill="none" d="M1,257.968C1,172.312,1,86.656,1,1c85.656,0,171.312,0,256.968,0
			c0,85.656,0,171.312,0,256.968C172.312,257.968,86.656,257.968,1,257.968z M78.172,187.934
			c-23.117,17.246-47.891,23.663-75.938,21.719c1.151,0.957,1.364,1.191,1.625,1.342c48.947,28.181,99.514,30.78,149.067,4.148
			c51.372-27.608,75.49-73.608,77.809-131.267c0.219-5.441,1.639-8.723,5.844-11.923c7.589-5.774,13.943-12.838,19.829-21.892
			c-9.499,3.415-17.755,6.476-27.424,7.149c14.472-13.861,18.581-19.573,19.67-27.089c-1.812-0.176-3.039,1.108-4.448,1.814
			c-7.464,3.741-15.223,6.629-23.32,8.688c-3.02,0.767-5.112,0.283-7.547-1.943c-22.655-20.725-58.254-17.388-76.831,7.053
			c-9.733,12.806-12.436,27.258-9.582,43.687C82.906,86.584,47.374,67.993,18.466,34.482c-12.367,27.333-7.33,50.067,14.836,69.573
			c-8.279,0.572-14.808-3.046-21.949-5.441c0.168,12.558,3.905,23.303,11.354,32.779c7.412,9.43,17.237,15.263,29.724,18.894
			c-8.116,2.347-15.031,1.812-22.678,1.099C38.216,173.573,54.111,185.135,78.172,187.934z"/>
		<path fill-rule="evenodd" clip-rule="evenodd" d="M78.172,187.934c-24.062-2.799-39.957-14.36-48.419-36.549
			c7.646,0.713,14.562,1.248,22.678-1.099c-12.486-3.631-22.312-9.464-29.724-18.894c-7.448-9.476-11.186-20.221-11.354-32.779
			c7.141,2.395,13.67,6.014,21.949,5.441C11.136,84.549,6.099,61.814,18.466,34.482c28.908,33.511,64.44,52.102,108.459,54.938
			c-2.854-16.429-0.151-30.881,9.582-43.687c18.577-24.44,54.176-27.778,76.831-7.053c2.435,2.226,4.527,2.71,7.547,1.943
			c8.098-2.059,15.856-4.947,23.32-8.688c1.409-0.706,2.637-1.99,4.448-1.814c-1.089,7.517-5.198,13.228-19.67,27.089
			c9.669-0.674,17.925-3.735,27.424-7.149c-5.886,9.054-12.24,16.117-19.829,21.892c-4.205,3.2-5.625,6.482-5.844,11.923
			c-2.318,57.658-26.437,103.658-77.809,131.267c-49.553,26.632-100.121,24.032-149.067-4.148c-0.261-0.15-0.473-0.385-1.625-1.342
			C30.281,211.597,55.055,205.18,78.172,187.934z"/>
	</g>
</g>
</svg>
